<svg width="41" height="41" viewBox="0 0 41 41" fill="none" xmlns="http://www.w3.org/2000/svg">
<path d="M33.9008 41H25.3557C24.7181 41 24.2054 40.4942 24.2054 39.8653V29.4907C24.2054 27.4546 22.5292 25.8012 20.4652 25.8012C18.4012 25.8012 16.7251 27.4546 16.7251 29.4907V39.8653C16.7251 40.4942 16.2124 41 15.5748 41H7.81838C5.54405 41 3.71013 39.1844 3.70355 36.9409V24.2191C1.46866 24.0245 -0.181209 22.0793 0.0159871 19.8747C0.101439 18.9345 0.51555 18.0591 1.19259 17.3913L17.6256 1.18093C19.2032 -0.388226 21.7733 -0.39471 23.364 1.16797L23.3771 1.18093L39.8101 17.3913C40.5726 18.1434 41.0065 19.1614 40.9999 20.2248C41.013 22.0339 39.7904 23.629 38.0222 24.1153V36.9409C38.0222 39.1844 36.1752 41 33.9008 41ZM26.5389 38.7306H33.9008C34.9 38.7306 35.7085 37.9265 35.715 36.9409V23.0973C35.715 22.4683 36.2278 21.9626 36.8654 21.9626C37.6016 21.982 38.272 21.5541 38.5547 20.8862C38.6401 20.6787 38.6927 20.4583 38.6927 20.2378C38.6927 19.7774 38.5087 19.33 38.1734 19.0058L21.7404 2.79548C21.0371 2.14059 19.9459 2.14059 19.2426 2.79548L2.8096 19.0058C2.12598 19.6931 2.13913 20.8019 2.83589 21.4698C3.16455 21.7875 3.60495 21.9626 4.06508 21.9691H4.85386C5.49146 21.9496 6.01732 22.4424 6.03704 23.0714C6.03704 23.0779 6.03704 23.0908 6.03704 23.0973V36.9409C6.03704 37.9265 6.85212 38.7241 7.85124 38.7306H14.4902V29.5036C14.4902 26.2097 17.1918 23.5447 20.5309 23.5447C23.8701 23.5447 26.5717 26.2097 26.5717 29.5036L26.5389 38.737V38.7306Z" fill="#67FF9A"/>
</svg>
