<svg width="365" height="257" viewBox="0 0 365 257" fill="none" xmlns="http://www.w3.org/2000/svg">
<g clip-path="url(#clip0_5_406)">
<path d="M221.922 102.9C233.158 84.0686 232.161 60.5202 219.506 42.763C210.494 30.0683 196.727 21.7075 180.966 19.5598L202.326 5.75287C226.371 15.7629 243.666 37.7772 247.462 63.5501C251.642 91.2022 240.099 118.816 217.244 135.269L221.922 102.9Z" fill="#0B9667"/>
<path d="M123.06 50.5486C116.464 64.2404 115.659 79.6965 121.104 94.1937L100.128 87.7888C96.0628 65.5828 102.429 42.7247 117.154 25.7729C134.986 5.13924 162.751 -4.18041 189.594 1.76423L163.211 20.02C145.801 23.28 130.883 34.5556 123.06 50.5486Z" fill="#0B9667"/>
<path d="M210.034 117.013L205.624 142.134C185.951 151.531 163.134 151.837 143.27 142.978C124.594 134.617 109.983 118.854 103.196 99.448L127.163 105.93C145.839 133.16 184.111 138.798 210.034 117.013Z" fill="#024F84"/>
<path d="M154.391 91.1639C155.158 98.1057 160.833 102.746 167.276 104.472H198.645V113.792H162.712L162.597 111.414C149.252 107.694 146.376 91.9693 149.52 80.2334C151.553 72.7163 156.922 66.81 164.054 63.9336C164.4 62.5146 164.63 61.2489 164.821 59.8299L150.019 40.1934L160.181 32.2161L190.86 71.2973L186.872 74.9791L189.94 79.1595C188.943 80.08 187.907 81.0772 186.757 81.8442C181.618 77.1269 185.453 78.8527 177.86 78.0857L171.762 70.07C170.037 69.9166 168.004 69.1495 166.355 69.9166C163.479 71.2206 161.102 73.4067 159.069 75.7845C155.426 80.08 153.739 85.6028 154.352 91.2022L154.391 91.1639Z" fill="#024F84"/>
<path d="M214.866 207.372L214.713 179.835L201.521 207.218C200.677 207.41 199.949 207.449 199.105 207.218L186.066 180.333L185.836 207.295H182.423V166.028H188.981L202.863 194.639C207.887 185.242 212.45 175.693 216.86 165.951H221.999L222.344 207.142L214.943 207.334L214.866 207.372Z" fill="#024F84"/>
<path d="M335.088 207.103C329.144 208.753 322.855 208.369 317.103 206.413C312.156 204.726 308.513 201.082 306.48 196.365C305.253 193.527 304.831 190.689 304.716 187.582C304.371 177.917 310.239 169.365 319.557 166.45C328.339 163.688 340.189 165.223 346.324 172.931C349.047 176.383 350.236 180.372 350.581 184.744C351.386 194.984 345.174 204.265 335.088 207.065V207.103ZM324.773 204.342C330.218 205.339 335.203 202.923 337.849 198.206C341.339 191.954 341.838 182.136 338.616 175.616C335.779 169.863 329.106 167.063 323.162 169.71C320.247 170.975 318.215 173.507 316.873 176.345C315.07 180.103 314.572 184.169 314.649 188.349C314.764 195.176 316.949 202.923 324.773 204.38V204.342Z" fill="#024F84"/>
<path d="M252.524 185.358C258.353 186.201 263.185 189.615 263.032 196.096C262.917 200.89 260.117 204.956 255.477 206.451C253.636 206.988 251.796 207.372 249.801 207.372H234.04V166.066L250.262 165.99C252.869 165.99 255.324 166.258 257.548 167.6C260.232 168.828 261.651 171.359 261.92 174.235C262.495 180.372 258.2 183.862 252.486 185.358H252.524ZM252.409 172.931C250.99 169.365 247.002 169.288 243.742 169.518V184.054C245.008 184.169 246.197 184.169 247.424 183.977C252.524 183.056 254.096 177.265 252.409 172.931ZM252.678 199.97C253.79 197.285 253.713 194.37 252.793 191.724C251.45 187.85 247.386 187.237 243.742 187.735V204.074H246.504C249.265 204.074 251.566 202.616 252.678 199.97Z" fill="#024F84"/>
<path d="M289.645 187.122L302.377 207.295H291.486L280.365 188.081L280.634 207.334H270.74V165.99H286.271C287.881 165.99 289.415 166.143 290.949 166.411C295.819 167.178 299.079 171.359 298.887 176.268C298.772 179.144 298.005 181.791 295.896 183.785C294.247 185.434 292.291 186.316 289.645 187.122ZM289.224 173.583C288.073 169.365 284.047 169.595 280.365 169.518L280.212 185.856C281.746 186.01 283.203 185.933 284.66 185.473C289.837 183.9 290.144 177.994 289.185 173.583H289.224Z" fill="#024F84"/>
<path d="M60.2069 195.214H46.3248L42.2216 207.334H36.3542L53.4576 165.721H58.0594L74.741 207.334H64.3102L60.1686 195.214H60.2069ZM58.7881 191.609L53.496 177.534L47.8971 191.609H58.7881Z" fill="#024F84"/>
<path d="M160.335 195.214H146.491L142.349 207.295H136.482L153.585 165.721C155.196 165.683 156.653 165.606 158.225 165.759L174.907 207.334H164.515L160.373 195.214H160.335ZM158.877 191.571L153.585 177.534L147.986 191.609H158.877V191.571Z" fill="#024F84"/>
<path d="M32.7112 166.105C34.5136 165.951 36.2392 165.99 38.0416 166.105L21.5901 207.372H16.2597L0 166.105L10.6992 166.028L21.3984 196.058L32.7112 166.105Z" fill="#024F84"/>
<path d="M127.393 205.723C121.258 209.289 111.977 209.673 108.756 202.041C108.027 200.277 107.721 198.512 107.682 196.518C108.986 196.518 110.137 196.441 111.479 196.518C111.517 198.934 112.092 201.235 113.856 202.808C115.62 204.38 117.845 204.61 120.107 204.495C122.868 204.342 125.092 202.77 125.821 200.315C126.626 197.592 125.706 195.099 123.443 193.45C118.995 190.228 115.505 189.998 111.709 186.47C109.293 184.245 108.219 181.446 108.181 178.186C108.104 172.279 111.747 167.294 117.499 165.798C120.337 165.069 123.252 164.916 126.013 166.066C130.346 167.869 133.031 172.049 133.376 176.613H129.272C129.081 173.967 127.777 171.551 125.783 170.247C123.482 168.751 120.567 168.559 118.228 169.786C116.502 170.707 115.429 172.394 115.314 174.082C115.16 176.115 116.157 177.764 117.768 178.991C122.255 182.404 126.665 182.826 130.538 186.815C132.609 188.924 133.529 191.456 133.567 194.37C133.644 199.011 131.535 203.268 127.47 205.646L127.393 205.723Z" fill="#024F84"/>
<path d="M103.694 202.194C103.924 203.882 103.732 205.531 103.771 207.372H80.455V166.066H90.3488L90.0037 203L103.694 202.233V202.194Z" fill="#024F84"/>
<path d="M156.27 237.057C153.24 237.785 150.211 237.555 147.411 236.558C143.653 235.254 141.544 231.956 141.084 228.121C140.355 222.214 143.845 216.883 149.75 215.618C152.397 215.042 155.119 215.157 157.689 215.963C161.83 217.228 164.285 220.642 164.745 224.861C165.358 230.537 162.022 235.676 156.27 237.057ZM158.225 232.148C159.951 228.773 160.143 224.707 158.839 221.255C157.535 217.804 153.7 216.078 150.441 217.689C148.715 218.532 147.603 220.143 146.989 221.984C145.417 226.548 145.801 234.986 151.975 235.561C154.506 235.829 156.998 234.679 158.264 232.148H158.225Z" fill="#0B9667"/>
<path d="M77.157 236.98C74.0891 237.824 70.9445 237.555 68.0684 236.596C64.2335 235.292 62.086 231.917 61.6642 228.005C61.0123 222.253 64.3486 217.075 70.0625 215.656C72.7469 215.004 75.5847 215.119 78.2307 215.924C82.334 217.19 84.865 220.565 85.3252 224.784C85.9387 230.345 82.7942 235.446 77.157 236.98ZM75.2779 235.216C80.1865 233.643 81.1068 225.858 79.4195 221.332C78.154 217.842 74.3959 216.078 71.0596 217.612C66.6878 219.606 66.1126 226.51 67.2631 230.805C68.2985 234.717 71.7882 236.328 75.2779 235.216Z" fill="#0B9667"/>
<path d="M211.568 237.018C208.385 237.785 205.126 237.555 202.211 236.366C198.606 234.947 196.727 231.611 196.305 227.89C195.692 222.099 199.105 216.922 204.857 215.579C211.415 214.084 218.893 216.653 219.928 224.515C220.657 230.23 217.397 235.561 211.568 236.98V237.018ZM214.061 221.255C212.795 217.88 209.152 216.116 205.854 217.535C201.406 219.453 200.754 226.395 201.904 230.729C202.863 234.449 205.969 236.136 209.344 235.369C214.789 234.142 215.825 225.973 214.022 221.255H214.061Z" fill="#0B9667"/>
<path d="M184.648 236.942L179.087 237.018L173.373 227.2C173.066 230.652 173.373 233.72 173.488 236.98H168.388C168.733 229.77 168.733 222.79 168.388 215.656C172.261 216.04 174.945 215.272 178.742 215.809C181.58 216.27 183.152 218.686 182.922 221.486C182.692 224.055 180.889 225.896 178.167 226.548L184.686 236.942H184.648ZM177.323 224.4C178.397 222.751 178.473 220.028 177.323 218.532C176.364 217.305 174.562 217.497 173.373 217.574V225.858C174.792 226.011 176.479 225.819 177.361 224.4H177.323Z" fill="#0B9667"/>
<path d="M105.228 236.98L99.6291 237.057L93.9152 227.238C93.6468 230.652 93.9152 233.72 94.0302 237.057H88.9683C89.2367 229.923 89.2367 222.905 88.9683 215.733C92.7264 216.078 95.4491 215.349 99.2073 215.848C101.585 216.155 103.234 217.957 103.464 220.335C103.771 223.48 101.777 225.896 98.7087 226.586L105.266 236.98H105.228ZM98.0185 224.209C98.9388 222.521 99.0155 220.067 97.9034 218.532C96.9831 217.267 95.1807 217.497 93.9152 217.535V225.858C95.4108 226.05 97.1748 225.781 98.0185 224.209Z" fill="#0B9667"/>
<path d="M54.0328 225.628C56.1803 226.241 58.4046 227.354 58.9031 229.693C59.6701 233.221 57.5609 236.328 54.0712 236.865C51.0033 237.364 47.4753 236.788 44.0623 237.057C44.4074 229.923 44.4074 223.02 44.0623 215.771C48.7791 216.461 59.0181 213.278 58.4813 221.102C58.2895 223.365 56.4871 224.746 54.0328 225.628ZM53.8411 220.68C53.7644 218.686 52.3455 217.344 50.4664 217.497C50.1597 217.497 49.1626 217.344 49.1242 217.727C48.8175 220.22 48.9709 222.598 48.9709 224.899C50.4664 225.167 51.7319 224.937 52.6906 224.094C53.5727 223.288 53.9178 222.138 53.8411 220.68ZM52.8057 227.622C51.7319 226.702 50.2747 226.74 48.9325 226.932L49.0092 235.177C50.1597 235.484 51.4251 235.484 52.4606 234.756C54.5314 233.298 54.5697 229.194 52.8057 227.66V227.622Z" fill="#0B9667"/>
<path d="M270.586 236.942C269.628 237.095 268.861 236.98 267.979 236.942L254.595 222.138V236.903H251.757C252.179 229.77 252.563 222.751 252.179 215.618C253.214 215.694 253.981 215.771 255.017 215.618L268.4 230.23L268.324 215.694C269.206 215.733 270.011 215.771 271.085 215.694L270.625 236.903L270.586 236.942Z" fill="#0B9667"/>
<path d="M285.696 230.805H278.524L276.415 237.018H273.386L282.129 215.656C283.011 215.579 283.778 215.579 284.622 215.618L293.173 237.018H287.766L285.657 230.805H285.696ZM284.929 228.811L282.206 221.716L279.368 228.811H284.929Z" fill="#0B9667"/>
<path d="M241.365 230.805L234.155 230.729L232.046 236.942H229.017L237.837 215.503L240.329 215.618L248.843 236.942H243.474L241.365 230.767V230.805ZM240.521 228.734L237.837 221.716C236.725 224.17 235.804 226.395 235.037 228.849C236.993 228.849 238.604 229.041 240.521 228.734Z" fill="#0B9667"/>
<path d="M118.151 230.767H111.019C110.137 232.8 109.561 234.756 108.871 236.942H105.842L114.585 215.618C115.429 215.464 116.157 215.618 117.078 215.579L125.629 236.98H120.261L118.113 230.767H118.151ZM117.384 228.773L114.7 221.754C113.55 224.209 112.668 226.433 111.901 228.849C113.933 228.849 115.505 229.003 117.384 228.773Z" fill="#0B9667"/>
<path d="M33.5932 230.805L26.3837 230.729L24.2745 236.942H21.2067L29.9884 215.579C30.7938 215.579 31.5607 215.656 32.4427 215.541C35.2038 222.79 37.7732 229.923 41.0328 237.018H35.6257L33.5165 230.805H33.5932ZM32.7495 228.734L30.1035 221.639C28.9914 223.979 28.1477 226.241 27.2657 228.811C29.2215 228.811 30.8321 228.964 32.7495 228.734Z" fill="#0B9667"/>
<path d="M329.528 236.788C326.575 237.824 323.507 237.67 320.746 236.328L321.475 232.608C321.513 232.416 321.666 232.263 321.743 232.186C322.51 231.841 322.472 235.829 326.882 235.523C328.339 235.408 329.489 234.679 329.911 233.413C331.56 228.159 322.05 229.041 320.976 223.327C320.593 221.294 320.938 219.3 322.28 217.65C324.734 214.62 330.103 214.544 332.941 216.73C332.557 217.919 332.442 218.993 331.714 220.105C330.985 218.839 330.333 217.842 329.374 217.535C327.994 217.037 326.652 217.113 325.578 217.957C324.811 218.532 324.504 219.376 324.542 220.22C324.657 223.633 331.292 223.94 333.209 227.507C335.127 231.074 333.439 235.484 329.528 236.827V236.788Z" fill="#0B9667"/>
<path d="M134.91 231.726L135.101 236.98H130.039L130.231 218.034L124.556 218.341C124.594 217.459 124.671 216.615 124.556 215.656H140.432V218.379L134.986 218.034V231.726H134.91Z" fill="#0B9667"/>
<path d="M19.6727 234.372L19.7494 236.942L7.78467 237.018C8.09146 229.923 8.09146 222.905 7.78467 215.733C9.472 215.809 11.0443 215.886 12.885 215.733C12.5782 222.099 12.5782 228.312 12.7316 234.756C15.0709 234.871 17.1417 234.64 19.6343 234.41L19.6727 234.372Z" fill="#0B9667"/>
<path d="M308.091 234.372V236.942H296.165V215.656C297.967 215.809 299.539 215.809 301.265 215.656L301.112 234.679C303.489 234.756 305.598 234.564 308.129 234.334L308.091 234.372Z" fill="#0B9667"/>
<path d="M342.835 236.98H337.734V215.733C339.422 215.848 341.032 215.848 342.835 215.733V237.018V236.98Z" fill="#0B9667"/>
<path d="M316.949 236.98H311.849V215.733C313.536 215.809 315.147 215.848 316.949 215.733V237.018V236.98Z" fill="#0B9667"/>
<path d="M192.624 236.98H187.447C187.715 233.682 187.677 230.498 187.677 227.123C187.677 223.25 187.715 219.53 187.485 215.656C189.249 215.809 190.822 215.809 192.624 215.656L192.394 226.433L192.624 236.98Z" fill="#0B9667"/>
<path d="M276.53 256.578C275.648 256.923 274.651 256.731 273.616 256.693V250.902C271.852 250.749 270.164 250.787 268.4 250.902V256.693C267.442 256.808 266.598 256.808 265.563 256.693V244.535H268.4V249.406H273.654C273.846 247.719 273.654 246.261 273.616 244.535H276.53V256.616V256.578Z" fill="#024F84"/>
<path d="M118.305 255.466C116.541 256.923 114.508 257.077 112.437 256.885C109.331 256.655 107.184 254.469 106.915 251.362C106.608 247.527 109.255 244.382 113.166 244.19C115.16 244.114 117.308 244.42 118.803 245.916C121.411 248.524 121.219 253.05 118.343 255.466H118.305ZM116.847 253.817C117.845 251.746 117.921 249.291 116.963 247.335C116.311 245.993 115.045 245.264 113.665 245.302C110.098 245.379 109.063 250.71 110.482 254.009C111.057 255.351 112.322 255.926 113.626 255.926C114.93 255.926 116.119 255.236 116.809 253.855L116.847 253.817Z" fill="#024F84"/>
<path d="M169.883 255.504C168.043 257 165.895 257.115 163.786 256.885C160.871 256.54 158.877 254.507 158.532 251.631C158.072 247.795 160.641 244.535 164.553 244.267C166.547 244.114 168.695 244.382 170.228 245.801C173.028 248.371 172.874 253.05 169.883 255.504ZM168.618 247.374C168.004 246.031 166.739 245.302 165.435 245.264C164.131 245.226 162.866 246.07 162.214 247.374C161.255 249.445 161.178 251.937 162.137 254.009C162.751 255.351 164.054 255.888 165.397 255.849C169.078 255.696 169.922 250.365 168.579 247.374H168.618Z" fill="#024F84"/>
<path d="M202.403 256.616C201.367 256.847 200.37 256.732 199.22 256.693L195.999 251.094V256.655C195.078 256.77 194.158 256.77 193.123 256.655V244.459H198.606C200.37 244.459 201.559 245.839 201.483 247.565C201.444 249.176 200.332 250.25 198.76 250.749L202.403 256.578V256.616ZM197.878 245.801C197.379 245.571 196.344 245.302 196.037 245.724C195.845 247.182 195.96 248.754 195.96 250.25C196.727 250.518 197.494 250.25 197.993 249.79C199.028 248.869 198.913 246.3 197.878 245.801Z" fill="#024F84"/>
<path d="M251.987 256.578C250.99 256.923 249.878 256.732 248.804 256.693L245.66 251.285C245.353 253.203 245.737 254.776 245.66 256.655C244.778 256.847 243.819 256.808 242.784 256.693V244.497H248.076C249.571 244.497 250.875 245.379 251.105 246.913C251.374 248.793 250.377 250.288 248.459 250.749L252.064 256.578H251.987ZM247.654 245.916C247.04 245.533 246.35 245.456 245.583 245.571C245.583 247.067 245.353 248.716 245.583 250.212C246.12 250.633 247.155 250.212 247.616 249.79C248.651 248.831 248.459 246.453 247.654 245.916Z" fill="#024F84"/>
<path d="M184.954 256.501C184.954 256.885 183.65 256.885 183.382 256.578C180.966 253.893 178.627 251.094 175.904 248.409L175.751 256.655C175.214 256.77 174.677 256.885 174.14 256.578C174.408 252.704 174.523 248.677 174.408 244.804C174.715 244.382 175.866 244.305 176.211 244.689L183.65 252.743V244.535C184.187 244.459 184.686 244.459 185.261 244.574C184.954 248.524 184.993 252.359 184.916 256.501H184.954Z" fill="#024F84"/>
<path d="M81.5671 256.578C81.1069 256.808 80.5316 256.77 79.9564 256.655C80.1482 252.628 80.4166 248.677 80.1865 244.574C80.7234 244.574 81.5671 244.267 81.9505 244.65L89.4285 252.704L89.5052 244.574C89.9654 244.459 90.4255 244.42 91.0775 244.65L90.809 256.54C90.5406 256.77 89.5435 256.923 89.2367 256.616L81.6438 248.294C81.3753 251.055 81.5671 253.74 81.6054 256.578H81.5671Z" fill="#024F84"/>
<path d="M103.08 256.616L95.4491 248.294C95.1807 251.17 95.3724 253.778 95.4491 256.578C94.989 256.808 94.4137 256.77 93.8385 256.655L94.0686 244.574C94.6055 244.535 95.2957 244.305 95.7559 244.535L103.311 252.704L103.387 244.574C103.809 244.459 104.308 244.459 104.96 244.65L104.691 256.578C104.423 256.808 103.426 256.962 103.119 256.655L103.08 256.616Z" fill="#024F84"/>
<path d="M236.725 253.241C235.306 253.05 233.963 253.088 232.621 253.241L231.356 256.578C231.126 256.962 230.167 256.732 229.668 256.655L234.654 244.535C235.037 244.344 235.651 244.459 236.149 244.535L241.02 256.693C239.984 256.923 239.025 256.808 237.952 256.77L236.763 253.318L236.725 253.241ZM236.188 251.899C235.612 250.365 235.344 249.329 234.692 248.064C234.04 249.406 233.542 250.595 233.158 251.976C234.27 252.014 235.229 252.168 236.188 251.899Z" fill="#024F84"/>
<path d="M138.821 253.241C137.402 253.05 136.06 253.088 134.718 253.241L133.452 256.578C133.222 256.962 132.264 256.77 131.765 256.655L136.712 244.612C136.865 244.267 137.978 244.344 138.284 244.612L143.078 256.616C142.043 256.885 141.084 256.732 140.01 256.693L138.821 253.241ZM138.284 251.976C137.786 250.557 137.441 249.368 136.789 248.102C136.137 249.406 135.638 250.633 135.255 252.014C136.367 252.091 137.287 252.129 138.323 252.014L138.284 251.976Z" fill="#024F84"/>
<path d="M228.48 251.055L224.607 250.979C224.453 252.359 224.568 253.702 224.53 255.312C225.834 255.543 227.023 255.312 228.48 255.236C228.71 255.658 228.633 256.195 228.518 256.732H221.73V244.459H228.48C228.556 244.957 228.595 245.418 228.556 245.993L224.683 245.839C224.377 247.028 224.453 248.256 224.53 249.636H228.441C228.595 250.02 228.518 250.518 228.441 251.055H228.48Z" fill="#024F84"/>
<path d="M210.609 251.055H206.736C206.544 252.474 206.583 253.893 206.736 255.389C208.155 255.428 209.344 255.312 210.686 255.236C210.801 255.734 210.801 256.195 210.686 256.732H203.86V244.497H210.686C210.801 244.957 210.801 245.418 210.686 245.993L206.851 245.839C206.544 247.067 206.66 248.371 206.736 249.675L210.571 249.56C210.724 249.943 210.648 250.403 210.609 251.055Z" fill="#024F84"/>
<path d="M256.819 254.315C258.43 256.54 261.344 256.156 263.262 254.584C263.377 255.044 263.262 256.118 262.802 256.348C261.076 257.153 259.005 257.153 257.164 256.732C254.135 256.041 252.524 253.356 252.793 250.365C252.984 248.025 254.058 245.916 256.282 244.957C258.507 243.998 261.229 243.998 263.492 245.072C263.415 245.839 263.338 246.376 263.032 247.105C262.15 246.031 261.229 245.456 260.079 245.418C258.852 245.418 257.663 245.878 256.896 247.028C255.515 249.099 255.285 252.206 256.896 254.354L256.819 254.315Z" fill="#024F84"/>
<path d="M130.615 244.689C130.768 244.305 131.803 244.497 132.187 244.612L127.393 256.617C126.895 256.808 126.166 256.808 125.706 256.617L120.951 244.497H124.095L127.317 253.165L130.615 244.689Z" fill="#024F84"/>
<path d="M217.896 256.31C216.093 257.307 213.907 257.192 212.182 256.348C212.373 255.389 212.373 254.66 212.834 253.778C213.447 255.236 214.291 255.964 215.671 255.849C216.553 255.773 217.205 255.389 217.435 254.622C218.356 251.516 212.258 252.283 212.182 248.179C212.182 246.683 212.834 245.264 214.252 244.612C215.825 243.922 217.704 244.037 219.084 244.996C219.008 245.724 218.854 246.3 218.432 246.913C217.896 246.185 217.512 245.609 217.014 245.456C216.17 245.187 215.403 245.264 214.828 245.801C214.022 246.53 214.252 247.719 215.134 248.332C216.783 249.483 219.698 249.981 219.736 252.705C219.736 254.085 219.238 255.504 217.857 256.233L217.896 256.31Z" fill="#024F84"/>
<path d="M148.485 256.693C147.373 256.77 146.568 256.77 145.571 256.693V245.916C144.458 245.724 143.576 246.031 142.503 245.993C142.349 245.418 142.388 244.919 142.503 244.459H151.361C151.591 244.919 151.515 245.494 151.361 246.031C150.326 246.031 149.52 245.801 148.332 245.878V256.693H148.485Z" fill="#024F84"/>
<path d="M184.187 98.2974C183.535 98.2207 183.152 97.7605 182.845 97.2236L202.825 83.1482C203.323 83.4934 203.438 84.0687 203.438 84.759L184.187 98.2974Z" fill="#024F84"/>
<path d="M360.475 178.799C358.136 179.681 355.72 179.336 353.764 177.994C350.121 175.424 349.852 170.17 352.959 167.178C356.065 164.187 361.357 164.647 363.811 168.329C366.265 172.011 364.847 177.188 360.475 178.799ZM357.369 166.028C353.726 166.373 351.31 169.633 351.77 173.046C352.23 176.46 355.183 178.761 358.634 178.377C362.085 177.994 364.501 175.002 364.118 171.551C363.773 168.367 360.935 165.683 357.369 166.028Z" fill="#024F84"/>
<path d="M156.423 256.655C155.426 256.808 154.582 256.77 153.509 256.693V244.574L156.423 244.535V256.693V256.655Z" fill="#024F84"/>
<path d="M77.0036 256.655C75.9682 256.808 75.0862 256.77 74.0891 256.655V244.535L77.0036 244.497V256.655Z" fill="#024F84"/>
<path d="M359.248 175.961C358.251 174.926 357.982 173.545 357.139 172.51C356.832 173.775 357.215 174.849 357.1 176.076C356.448 176.153 355.911 176.153 355.298 176.076V168.099C357.292 168.176 360.552 167.37 360.782 169.902C360.858 170.899 360.206 171.858 358.979 172.203L361.242 176.076C360.743 176.076 359.708 176.46 359.248 176V175.961ZM357.062 171.819C358.327 172.011 358.826 171.167 358.903 170.247C358.979 169.326 358.097 168.291 357.254 168.866C356.832 169.595 357.139 170.937 357.062 171.819Z" fill="#024F84"/>
</g>
<defs>
<clipPath id="clip0_5_406">
<rect width="365" height="257" fill="white"/>
</clipPath>
</defs>
</svg>
