<svg width="431" height="577" viewBox="0 0 431 577" fill="none" xmlns="http://www.w3.org/2000/svg">
<path d="M430.464 37.5571C420.344 31.8371 409.794 26.6971 398.794 22.1371L316.684 75.4771C359.694 81.4171 398.874 99.2872 430.464 126.637V37.5571Z" fill="#29AABC"/>
<path d="M115.094 159.627C70.6444 218.497 59.8344 294.897 85.8344 363.497L4.68437 338.687C-11.5156 250.667 14.8644 159.947 75.1144 94.0771C144.254 18.0971 248.824 -15.6029 350.104 6.84714L248.184 77.3871C195.224 87.2871 147.764 116.557 115.094 159.627Z" fill="#29AABC"/>
<path d="M428.994 450.987L411.644 548.257C329.714 587.467 233.814 585.417 153.634 542.987C90.0344 509.047 40.8044 452.677 16.5544 383.557L109.144 408.607C181.484 514.047 329.854 535.147 428.994 450.987Z" fill="#29AABC"/>
<path d="M232.844 386.447C241.104 393.247 251.934 402.087 263.104 402.177L384.894 403.137L384.914 438.887L246.164 438.917L245.804 429.817C193.884 415.407 182.914 353.497 195.824 308.267C203.924 279.907 224.394 257.717 251.504 246.707C252.894 241.237 253.744 236.427 254.474 230.837L197.424 154.997L236.504 124.157L354.954 274.997L339.514 289.147L351.344 305.247C347.494 308.837 343.284 312.527 339.184 315.647C319.174 297.487 334.424 303.937 304.754 301.017L281.224 270.047C274.654 269.487 266.734 266.467 260.364 269.397C249.274 274.497 240.164 282.807 232.324 292.067C210.064 318.377 204.434 363.047 232.854 386.447H232.844Z" fill="#29AABC"/>
<path d="M329.074 379.167C326.544 378.937 325.154 377.017 323.864 375.037L401.234 320.567C402.744 322.597 403.314 324.397 403.684 326.657L329.074 379.167Z" fill="#29AABC"/>
</svg>
