<svg width="82" height="105" viewBox="0 0 82 105" fill="none" xmlns="http://www.w3.org/2000/svg">
<g clip-path="url(#clip0_6_346)">
<path d="M81.379 23.3231L58.5205 0.616875C58.1241 0.223125 57.5823 0 57.0274 0H2.11408C0.951337 0 0 0.931875 0 2.1V102.9C0 104.055 0.938124 105 2.11408 105H79.8859C81.0487 105 82 104.068 82 102.9V24.8194C82 24.255 81.7754 23.73 81.379 23.3363V23.3231ZM58.9036 6.94312L75.2217 23.1525H58.9036V6.94312ZM4.22817 100.8V4.2H54.6755V25.2525C54.6755 26.4075 55.6136 27.3525 56.7896 27.3525H77.7718V100.8H4.22817ZM67.7696 71.9119V87.465C67.7696 88.62 66.8315 89.565 65.6555 89.565H16.3445C15.1818 89.565 14.2304 88.6331 14.2304 87.465V71.9119C14.2304 70.7569 15.1685 69.8119 16.3445 69.8119C17.5205 69.8119 18.4586 70.7438 18.4586 71.9119V85.3781H63.5414V71.9119C63.5414 70.7569 64.4795 69.8119 65.6555 69.8119C66.8315 69.8119 67.7696 70.7438 67.7696 71.9119ZM29.3329 52.185L39.3616 39.8475C39.758 39.3488 40.3658 39.0731 41.0132 39.0731C41.6607 39.0731 42.2552 39.3619 42.6648 39.8475L52.6935 52.185C53.4202 53.0906 53.2881 54.4162 52.3764 55.1381C51.4647 55.86 50.1302 55.7288 49.4035 54.8231L43.1405 47.1188V77.2275C43.1405 78.3825 42.2024 79.3275 41.0264 79.3275C39.8505 79.3275 38.9123 78.3956 38.9123 77.2275V47.1188L32.6494 54.8231C31.9227 55.7288 30.5881 55.8731 29.6764 55.1381C28.7647 54.4162 28.6194 53.0906 29.3593 52.185H29.3329Z" fill="white"/>
</g>
<defs>
<clipPath id="clip0_6_346">
<rect width="82" height="105" fill="white"/>
</clipPath>
</defs>
</svg>
