<svg width="556" height="556" viewBox="0 0 556 556" fill="none" xmlns="http://www.w3.org/2000/svg">
<path d="M457.646 382.489C499.206 312.839 495.566 225.499 449.046 159.659C415.446 112.099 364.086 80.8892 305.346 72.7792L384.526 21.3392C527.356 80.4992 595.146 245.929 532.566 389.119C512.926 433.819 481.436 473.409 440.126 503.139L457.656 382.469L457.646 382.489Z" fill="white" fill-opacity="0.1"/>
<path d="M110.976 153.919C68.1162 210.689 57.6862 284.349 82.7562 350.499L4.51624 326.579C-11.1038 241.709 14.3362 154.239 72.4262 90.7192C139.086 17.4492 239.906 -15.0408 337.576 6.59917L239.306 74.6192C188.246 84.1692 142.476 112.389 110.976 153.919Z" fill="white" fill-opacity="0.1"/>
<path d="M413.646 434.859L396.916 528.649C317.926 566.449 225.446 564.479 148.136 523.559C86.8062 490.839 39.3462 436.479 15.9662 369.829L105.236 393.979C174.996 495.649 318.046 515.989 413.646 434.849V434.859Z" fill="white" fill-opacity="0.1"/>
<path d="M224.506 372.619C232.466 379.169 242.906 387.699 253.686 387.789L371.116 388.709L371.136 423.179L237.346 423.209L236.996 414.439C186.936 400.539 176.356 340.849 188.806 297.239C196.616 269.899 216.356 248.499 242.496 237.889C243.836 232.609 244.656 227.979 245.356 222.589L190.346 149.459L228.026 119.719L342.236 265.159L327.346 278.799L338.756 294.329C335.046 297.789 330.986 301.349 327.026 304.359C307.726 286.849 322.436 293.069 293.826 290.249L271.136 260.389C264.796 259.849 257.166 256.929 251.016 259.759C240.326 264.679 231.536 272.689 223.976 281.619C202.506 306.989 197.076 350.059 224.486 372.619H224.506Z" fill="white" fill-opacity="0.1"/>
<path d="M317.296 365.599C314.856 365.369 313.516 363.529 312.276 361.619L386.876 309.099C388.336 311.059 388.876 312.799 389.236 314.969L317.296 365.599Z" fill="white" fill-opacity="0.1"/>
</svg>
