<svg width="75" height="75" viewBox="0 0 75 75" fill="none" xmlns="http://www.w3.org/2000/svg">
<g clip-path="url(#clip0_5_100)">
<path d="M61.7447 51.6247C67.3493 42.2222 66.8626 30.4377 60.5829 21.5482C56.0511 15.1298 49.1226 10.9155 41.1945 9.82132L51.8752 2.87939C71.1432 10.8631 80.2906 33.1914 71.8497 52.5199C69.2018 58.5509 64.9525 63.8961 59.3793 67.9115L61.7447 51.6247Z" fill="white"/>
<path d="M14.9716 20.7735C9.1891 28.4326 7.78141 38.3796 11.1672 47.3056L0.612143 44.0755C-1.49677 32.6208 1.9361 20.8153 9.76997 12.2453C18.7656 2.3559 32.3663 -2.03123 45.5431 0.890029L32.2825 10.0726C25.3958 11.3605 19.2208 15.1718 14.9716 20.7735Z" fill="white"/>
<path d="M55.8052 58.6922L53.5497 71.351C42.89 76.4554 30.4144 76.1884 19.985 70.6652C11.7115 66.2467 5.3063 58.9121 2.15601 49.918L14.2025 53.1795C23.6115 66.9011 42.911 69.6496 55.8104 58.6975L55.8052 58.6922Z" fill="white"/>
<path d="M30.2889 50.2949C31.3617 51.1797 32.7693 52.3314 34.2241 52.3419L50.0646 52.4675V57.1217H32.0158L31.9687 55.9385C25.2128 54.0643 23.7894 46.0072 25.4692 40.1176C26.5211 36.4268 29.1847 33.5369 32.7118 32.1077C32.8949 31.3957 33.0048 30.7727 33.099 30.045L25.6786 20.1766L30.7599 16.1612L46.1659 35.7933L44.1565 37.6361L45.695 39.7302C45.1926 40.1961 44.6484 40.6778 44.1146 41.0861C41.5138 38.725 43.4971 39.5627 39.6351 39.1805L36.5738 35.1494C35.7208 35.0761 34.6899 34.6834 33.8578 35.0656C32.4135 35.7305 31.2308 36.8089 30.2104 38.0183C27.3165 41.4421 26.5839 47.2532 30.2784 50.3001L30.2889 50.2949Z" fill="white"/>
<path d="M42.8063 49.3473C42.4766 49.3159 42.2987 49.0699 42.1312 48.8081L52.1944 41.7196C52.3932 41.9814 52.4665 42.2169 52.5136 42.5101L42.8063 49.3421V49.3473Z" fill="white"/>
</g>
<defs>
<clipPath id="clip0_5_100">
<rect width="75" height="75" fill="white"/>
</clipPath>
</defs>
</svg>
